# xmcd
#
# Track frame offsets: 
#        150
#        18297
#        36157
#        53457
#        73992
#        95375
#        107745
#        130830
#        150927
#        170367
#
# Disc length: 2569 seconds
#
# Revision: 4
# Processed by: cddbd v1.5.2PL0 Copyright (c) Steve Scherf et al.
# Submitted via: ExactAudioCopy v1.1
#
DISCID=740a070a
DTITLE=Rodney Crowell - Life Is Messy
DYEAR=1992
DGENRE=Country
TTITLE0=It's Not For Me To Judge
TTITLE1=What Kind Of Love
TTITLE2=Lovin' All Night
TTITLE3=Life Is Messy
TTITLE4=I Hardly Know How To Be Myself
TTITLE5=It Don't Get Better Than This
TTITLE6=Alone But Not Alone
TTITLE7=Let's Make Trouble
TTITLE8=The Answer Is Yes
TTITLE9=Maybe Next Time
EXTD=
EXTT0=
EXTT1=
EXTT2=
EXTT3=
EXTT4=
EXTT5=
EXTT6=
EXTT7=
EXTT8=
EXTT9=
PLAYORDER=
